<?xml version="1.0" standalone="no"?>
<!DOCTYPE svg PUBLIC "-//W3C//DTD SVG 20010904//EN"
 "http://www.w3.org/TR/2001/REC-SVG-20010904/DTD/svg10.dtd">
<svg version="1.0" xmlns="http://www.w3.org/2000/svg"
 width="900.000000pt" height="900.000000pt" viewBox="0 0 900.000000 900.000000"
 preserveAspectRatio="xMidYMid meet">
<metadata>
Created by potrace 1.11, written by Peter Selinger 2001-2013
</metadata>
<g transform="translate(0.000000,900.000000) scale(0.100000,-0.100000)"
fill="#000000" stroke="none">
<path d="M0 4500 l0 -4500 4500 0 4500 0 0 4500 0 4500 -4500 0 -4500 0 0
-4500z m4720 3090 c625 -44 1240 -226 1742 -518 54 -32 98 -62 98 -68 0 -10
-496 -1062 -506 -1073 -2 -3 -84 36 -182 86 -402 206 -789 348 -1157 425 -137
29 -167 32 -340 32 -154 1 -202 -3 -254 -17 -136 -39 -222 -101 -268 -195 -24
-48 -28 -70 -28 -137 0 -68 5 -89 31 -145 36 -76 93 -136 187 -197 142 -93
287 -146 792 -293 187 -54 408 -122 490 -150 578 -200 929 -459 1105 -815 63
-128 96 -230 122 -380 27 -158 21 -457 -11 -602 -155 -700 -742 -1141 -1676
-1259 -192 -25 -593 -25 -795 -1 -654 78 -1256 293 -1760 630 -86 57 -199 140
-244 178 -9 8 512 1069 526 1069 5 0 36 -22 68 -49 334 -279 874 -549 1320
-661 182 -46 284 -62 445 -67 248 -9 420 26 548 111 184 124 218 368 76 547
-39 49 -131 115 -229 164 -151 76 -241 105 -867 279 -466 130 -744 243 -975
395 -327 216 -514 505 -575 886 -23 149 -14 433 20 575 70 292 195 511 408
714 413 393 1107 590 1889 536z m2850 -5890 l0 -300 -2255 0 -2255 0 0 300 0
300 2255 0 2255 0 0 -300z"/>
</g>
</svg>
